<svg xmlns="http://www.w3.org/2000/svg" version="1.1" xmlns:xlink="http://www.w3.org/1999/xlink" xmlns:svgjs="http://svgjs.com/svgjs" width="1440" height="560" preserveAspectRatio="none" viewBox="0 0 1440 560"><g mask="url(&quot;#SvgjsMask1009&quot;)" fill="none"><rect width="1440" height="560" x="0" y="0" fill="rgba(229, 77, 38, 1)"></rect><path d="M1488 560L0 560 L0 238.05Q37.81 155.86, 120 193.66Q164.49 118.15, 240 162.64Q325.4 128.04, 360 213.44Q411.7 145.14, 480 196.85Q569 165.86, 600 254.86Q683.63 218.49, 720 302.11Q742.55 252.66, 792 275.21Q821.98 185.19, 912 215.17Q921.7 152.87, 984 162.57Q1028.63 135.2, 1056 179.83Q1090 93.83, 1176 127.83Q1221.55 101.38, 1248 146.93Q1327.4 106.33, 1368 185.73Q1487.95 185.68, 1488 305.63z" fill="rgba(229, 94, 55, 1)"></path><path d="M1512 560L0 560 L0 287.44Q49.71 217.15, 120 266.87Q182.4 257.27, 192 319.67Q297.45 353.13, 264 458.58Q207.73 330.31, 336 274.04Q420.49 238.53, 456 323.02Q558.5 353.51, 528 456.01Q515.76 323.77, 648 311.53Q664.38 255.91, 720 272.29Q766.69 246.99, 792 293.68Q878.07 259.75, 912 345.83Q985.06 298.89, 1032 371.95Q1059.24 279.19, 1152 306.42Q1219.69 254.12, 1272 321.81Q1302.42 232.24, 1392 262.66Q1464.55 215.21, 1512 287.75z" fill="rgba(229, 109, 71, 1)"></path><path d="M1488 560L0 560 L0 554.85Q23.88 458.73, 120 482.61Q160.83 403.44, 240 444.28Q287.77 420.05, 312 467.83Q363.9 447.73, 384 499.62Q406.13 401.75, 504 423.87Q573.94 373.81, 624 443.75Q674.57 422.32, 696 472.89Q724.48 429.37, 768 457.85Q818.34 436.19, 840 486.52Q964.78 491.3, 960 616.08Q946.73 530.81, 1032 517.53Q1075.49 441.02, 1152 484.51Q1163.22 423.73, 1224 434.95Q1292.92 383.88, 1344 452.8Q1421.74 458.54, 1416 536.28Q1392.94 441.22, 1488 418.16z" fill="rgba(226, 136, 104, 1)"></path></g><defs><mask id="SvgjsMask1009"><rect width="1440" height="560" fill="#ffffff"></rect></mask></defs></svg>