<svg xmlns="http://www.w3.org/2000/svg" version="1.1" xmlns:xlink="http://www.w3.org/1999/xlink" xmlns:svgjs="http://svgjs.com/svgjs" width="1440" height="560" preserveAspectRatio="none" viewBox="0 0 1440 560"><g mask="url(&quot;#SvgjsMask1080&quot;)" fill="none"><rect width="1440" height="560" x="0" y="0" fill="rgba(229, 77, 38, 1)"></rect><path d="M1464 560L0 560 L0 168.36Q51.16 147.53, 72 198.69Q127.58 182.27, 144 237.85Q186.26 208.11, 216 250.36Q227.82 142.18, 336 154Q380.01 78.02, 456 122.03Q539.23 85.25, 576 168.48Q670.26 142.75, 696 237.01Q745.99 215, 768 264.98Q785.38 162.36, 888 179.74Q912.68 132.42, 960 157.09Q1049.32 126.41, 1080 215.73Q1122.72 186.45, 1152 229.18Q1227.07 184.25, 1272 259.31Q1298.86 214.17, 1344 241.03Q1393.33 170.36, 1464 219.69z" fill="rgba(229, 94, 55, 1)"></path><path d="M1560 560L0 560 L0 327.16Q77.79 284.95, 120 362.73Q121.55 292.28, 192 293.84Q233.77 215.61, 312 257.37Q358.29 183.66, 432 229.95Q523.87 201.82, 552 293.69Q601.71 271.4, 624 321.11Q678.75 255.86, 744 310.6Q783.89 230.49, 864 270.38Q907.81 242.19, 936 286Q980 210, 1056 254.01Q1113.22 239.23, 1128 296.45Q1206.99 255.44, 1248 334.42Q1270.49 284.91, 1320 307.4Q1341.2 208.6, 1440 229.8Q1517.46 187.26, 1560 264.72z" fill="rgba(229, 109, 71, 1)"></path><path d="M1536 560L0 560 L0 369.14Q66.78 315.92, 120 382.71Q192.16 382.87, 192 455.03Q266.01 409.04, 312 483.05Q346.06 397.12, 432 431.18Q453.59 332.77, 552 354.36Q578.91 309.27, 624 336.18Q676.8 316.98, 696 369.78Q773 326.77, 816 403.77Q845.59 313.36, 936 342.95Q980.34 315.29, 1008 359.63Q1053.73 333.36, 1080 379.09Q1134.05 361.14, 1152 415.19Q1207.36 398.55, 1224 453.91Q1234.83 344.74, 1344 355.56Q1371.42 310.98, 1416 338.4Q1497.93 300.33, 1536 382.26z" fill="rgba(226, 136, 104, 1)"></path><path d="M1536 560L0 560 L0 476.68Q76.87 481.55, 72 558.43Q123.66 538.09, 144 589.74Q161.26 487, 264 504.26Q315.18 435.44, 384 486.62Q443.14 473.76, 456 532.9Q503.41 508.31, 528 555.72Q536.56 492.28, 600 500.84Q637.14 417.98, 720 455.11Q812.1 427.21, 840 519.31Q889.9 497.21, 912 547.12Q981.88 497, 1032 566.89Q1044.44 459.33, 1152 471.77Q1181.42 429.19, 1224 458.62Q1285.37 447.99, 1296 509.36Q1380.83 474.19, 1416 559.03Q1426.28 449.31, 1536 459.59z" fill="rgba(255, 210, 193, 1)"></path></g><defs><mask id="SvgjsMask1080"><rect width="1440" height="560" fill="#ffffff"></rect></mask></defs></svg>