<svg xmlns="http://www.w3.org/2000/svg" version="1.1" xmlns:xlink="http://www.w3.org/1999/xlink" xmlns:svgjs="http://svgjs.dev/svgjs" viewBox="0 0 800 800" opacity="0.54" width="800" height="800"><g stroke-width="2.25" stroke="#121212ff" fill="none"><circle r="2.7105263157894735" cx="0" cy="0" fill="#121212ff" stroke="none"></circle><circle r="2.7105263157894735" cx="80" cy="0" fill="#121212ff" stroke="none"></circle><circle r="2.7105263157894735" cx="160" cy="0" fill="#121212ff" stroke="none"></circle><circle r="2.7105263157894735" cx="240" cy="0" fill="#121212ff" stroke="none"></circle><circle r="2.7105263157894735" cx="320" cy="0" fill="#121212ff" stroke="none"></circle><circle r="2.7105263157894735" cx="400" cy="0" fill="#121212ff" stroke="none"></circle><circle r="2.7105263157894735" cx="480" cy="0" fill="#121212ff" stroke="none"></circle><circle r="2.7105263157894735" cx="560" cy="0" fill="#121212ff" stroke="none"></circle><circle r="2.7105263157894735" cx="640" cy="0" fill="#121212ff" stroke="none"></circle><circle r="2.7105263157894735" cx="720" cy="0" fill="#121212ff" stroke="none"></circle><circle r="2.7105263157894735" cx="800" cy="0" fill="#121212ff" stroke="none"></circle><circle r="2.7105263157894735" cx="0" cy="72.72727272727273" fill="#121212ff" stroke="none"></circle><circle r="2.7105263157894735" cx="80" cy="72.72727272727273" fill="#121212ff" stroke="none"></circle><circle r="2.7105263157894735" cx="160" cy="72.72727272727273" fill="#121212ff" stroke="none"></circle><circle r="2.7105263157894735" cx="240" cy="72.72727272727273" fill="#121212ff" stroke="none"></circle><circle r="2.7105263157894735" cx="320" cy="72.72727272727273" fill="#121212ff" stroke="none"></circle><circle r="2.7105263157894735" cx="400" cy="72.72727272727273" fill="#121212ff" stroke="none"></circle><circle r="2.7105263157894735" cx="480" cy="72.72727272727273" fill="#121212ff" stroke="none"></circle><circle r="2.7105263157894735" cx="560" cy="72.72727272727273" fill="#121212ff" stroke="none"></circle><circle r="2.7105263157894735" cx="640" cy="72.72727272727273" fill="#121212ff" stroke="none"></circle><circle r="2.7105263157894735" cx="720" cy="72.72727272727273" fill="#121212ff" stroke="none"></circle><circle r="2.7105263157894735" cx="800" cy="72.72727272727273" fill="#121212ff" stroke="none"></circle><circle r="2.7105263157894735" cx="0" cy="145.45454545454547" fill="#121212ff" stroke="none"></circle><circle r="2.7105263157894735" cx="80" cy="145.45454545454547" fill="#121212ff" stroke="none"></circle><circle r="2.7105263157894735" cx="160" cy="145.45454545454547" fill="#121212ff" stroke="none"></circle><circle r="2.7105263157894735" cx="240" cy="145.45454545454547" fill="#121212ff" stroke="none"></circle><circle r="2.7105263157894735" cx="320" cy="145.45454545454547" fill="#121212ff" stroke="none"></circle><circle r="2.7105263157894735" cx="400" cy="145.45454545454547" fill="#121212ff" stroke="none"></circle><circle r="2.7105263157894735" cx="480" cy="145.45454545454547" fill="#121212ff" stroke="none"></circle><circle r="2.7105263157894735" cx="560" cy="145.45454545454547" fill="#121212ff" stroke="none"></circle><circle r="2.7105263157894735" cx="640" cy="145.45454545454547" fill="#121212ff" stroke="none"></circle><circle r="2.7105263157894735" cx="720" cy="145.45454545454547" fill="#121212ff" stroke="none"></circle><circle r="2.7105263157894735" cx="800" cy="145.45454545454547" fill="#121212ff" stroke="none"></circle><circle r="2.7105263157894735" cx="0" cy="218.1818181818182" fill="#121212ff" stroke="none"></circle><circle r="2.7105263157894735" cx="80" cy="218.1818181818182" fill="#121212ff" stroke="none"></circle><circle r="2.7105263157894735" cx="160" cy="218.1818181818182" fill="#121212ff" stroke="none"></circle><circle r="2.7105263157894735" cx="240" cy="218.1818181818182" fill="#121212ff" stroke="none"></circle><circle r="2.7105263157894735" cx="320" cy="218.1818181818182" fill="#121212ff" stroke="none"></circle><circle r="2.7105263157894735" cx="400" cy="218.1818181818182" fill="#121212ff" stroke="none"></circle><circle r="2.7105263157894735" cx="480" cy="218.1818181818182" fill="#121212ff" stroke="none"></circle><circle r="2.7105263157894735" cx="560" cy="218.1818181818182" fill="#121212ff" stroke="none"></circle><circle r="2.7105263157894735" cx="640" cy="218.1818181818182" fill="#121212ff" stroke="none"></circle><circle r="2.7105263157894735" cx="720" cy="218.1818181818182" fill="#121212ff" stroke="none"></circle><circle r="2.7105263157894735" cx="800" cy="218.1818181818182" fill="#121212ff" stroke="none"></circle><circle r="2.7105263157894735" cx="0" cy="290.90909090909093" fill="#121212ff" stroke="none"></circle><circle r="2.7105263157894735" cx="80" cy="290.90909090909093" fill="#121212ff" stroke="none"></circle><circle r="2.7105263157894735" cx="160" cy="290.90909090909093" fill="#121212ff" stroke="none"></circle><circle r="2.7105263157894735" cx="240" cy="290.90909090909093" fill="#121212ff" stroke="none"></circle><circle r="2.7105263157894735" cx="320" cy="290.90909090909093" fill="#121212ff" stroke="none"></circle><circle r="2.7105263157894735" cx="400" cy="290.90909090909093" fill="#121212ff" stroke="none"></circle><circle r="2.7105263157894735" cx="480" cy="290.90909090909093" fill="#121212ff" stroke="none"></circle><circle r="2.7105263157894735" cx="560" cy="290.90909090909093" fill="#121212ff" stroke="none"></circle><circle r="2.7105263157894735" cx="640" cy="290.90909090909093" fill="#121212ff" stroke="none"></circle><circle r="2.7105263157894735" cx="720" cy="290.90909090909093" fill="#121212ff" stroke="none"></circle><circle r="2.7105263157894735" cx="800" cy="290.90909090909093" fill="#121212ff" stroke="none"></circle><circle r="2.7105263157894735" cx="0" cy="363.6363636363637" fill="#121212ff" stroke="none"></circle><circle r="2.7105263157894735" cx="80" cy="363.6363636363637" fill="#121212ff" stroke="none"></circle><circle r="2.7105263157894735" cx="160" cy="363.6363636363637" fill="#121212ff" stroke="none"></circle><circle r="2.7105263157894735" cx="240" cy="363.6363636363637" fill="#121212ff" stroke="none"></circle><circle r="2.7105263157894735" cx="320" cy="363.6363636363637" fill="#121212ff" stroke="none"></circle><circle r="2.7105263157894735" cx="400" cy="363.6363636363637" fill="#121212ff" stroke="none"></circle><circle r="2.7105263157894735" cx="480" cy="363.6363636363637" fill="#121212ff" stroke="none"></circle><circle r="2.7105263157894735" cx="560" cy="363.6363636363637" fill="#121212ff" stroke="none"></circle><circle r="2.7105263157894735" cx="640" cy="363.6363636363637" fill="#121212ff" stroke="none"></circle><circle r="2.7105263157894735" cx="720" cy="363.6363636363637" fill="#121212ff" stroke="none"></circle><circle r="2.7105263157894735" cx="800" cy="363.6363636363637" fill="#121212ff" stroke="none"></circle><circle r="2.7105263157894735" cx="0" cy="436.36363636363643" fill="#121212ff" stroke="none"></circle><circle r="2.7105263157894735" cx="80" cy="436.36363636363643" fill="#121212ff" stroke="none"></circle><circle r="2.7105263157894735" cx="160" cy="436.36363636363643" fill="#121212ff" stroke="none"></circle><circle r="2.7105263157894735" cx="240" cy="436.36363636363643" fill="#121212ff" stroke="none"></circle><circle r="2.7105263157894735" cx="320" cy="436.36363636363643" fill="#121212ff" stroke="none"></circle><circle r="2.7105263157894735" cx="400" cy="436.36363636363643" fill="#121212ff" stroke="none"></circle><circle r="2.7105263157894735" cx="480" cy="436.36363636363643" fill="#121212ff" stroke="none"></circle><circle r="2.7105263157894735" cx="560" cy="436.36363636363643" fill="#121212ff" stroke="none"></circle><circle r="2.7105263157894735" cx="640" cy="436.36363636363643" fill="#121212ff" stroke="none"></circle><circle r="2.7105263157894735" cx="720" cy="436.36363636363643" fill="#121212ff" stroke="none"></circle><circle r="2.7105263157894735" cx="800" cy="436.36363636363643" fill="#121212ff" stroke="none"></circle><circle r="2.7105263157894735" cx="0" cy="509.0909090909092" fill="#121212ff" stroke="none"></circle><circle r="2.7105263157894735" cx="80" cy="509.0909090909092" fill="#121212ff" stroke="none"></circle><circle r="2.7105263157894735" cx="160" cy="509.0909090909092" fill="#121212ff" stroke="none"></circle><circle r="2.7105263157894735" cx="240" cy="509.0909090909092" fill="#121212ff" stroke="none"></circle><circle r="2.7105263157894735" cx="320" cy="509.0909090909092" fill="#121212ff" stroke="none"></circle><circle r="2.7105263157894735" cx="400" cy="509.0909090909092" fill="#121212ff" stroke="none"></circle><circle r="2.7105263157894735" cx="480" cy="509.0909090909092" fill="#121212ff" stroke="none"></circle><circle r="2.7105263157894735" cx="560" cy="509.0909090909092" fill="#121212ff" stroke="none"></circle><circle r="2.7105263157894735" cx="640" cy="509.0909090909092" fill="#121212ff" stroke="none"></circle><circle r="2.7105263157894735" cx="720" cy="509.0909090909092" fill="#121212ff" stroke="none"></circle><circle r="2.7105263157894735" cx="800" cy="509.0909090909092" fill="#121212ff" stroke="none"></circle><circle r="2.7105263157894735" cx="0" cy="581.8181818181819" fill="#121212ff" stroke="none"></circle><circle r="2.7105263157894735" cx="80" cy="581.8181818181819" fill="#121212ff" stroke="none"></circle><circle r="2.7105263157894735" cx="160" cy="581.8181818181819" fill="#121212ff" stroke="none"></circle><circle r="2.7105263157894735" cx="240" cy="581.8181818181819" fill="#121212ff" stroke="none"></circle><circle r="2.7105263157894735" cx="320" cy="581.8181818181819" fill="#121212ff" stroke="none"></circle><circle r="2.7105263157894735" cx="400" cy="581.8181818181819" fill="#121212ff" stroke="none"></circle><circle r="2.7105263157894735" cx="480" cy="581.8181818181819" fill="#121212ff" stroke="none"></circle><circle r="2.7105263157894735" cx="560" cy="581.8181818181819" fill="#121212ff" stroke="none"></circle><circle r="2.7105263157894735" cx="640" cy="581.8181818181819" fill="#121212ff" stroke="none"></circle><circle r="2.7105263157894735" cx="720" cy="581.8181818181819" fill="#121212ff" stroke="none"></circle><circle r="2.7105263157894735" cx="800" cy="581.8181818181819" fill="#121212ff" stroke="none"></circle><circle r="2.7105263157894735" cx="0" cy="654.5454545454546" fill="#121212ff" stroke="none"></circle><circle r="2.7105263157894735" cx="80" cy="654.5454545454546" fill="#121212ff" stroke="none"></circle><circle r="2.7105263157894735" cx="160" cy="654.5454545454546" fill="#121212ff" stroke="none"></circle><circle r="2.7105263157894735" cx="240" cy="654.5454545454546" fill="#121212ff" stroke="none"></circle><circle r="2.7105263157894735" cx="320" cy="654.5454545454546" fill="#121212ff" stroke="none"></circle><circle r="2.7105263157894735" cx="400" cy="654.5454545454546" fill="#121212ff" stroke="none"></circle><circle r="2.7105263157894735" cx="480" cy="654.5454545454546" fill="#121212ff" stroke="none"></circle><circle r="2.7105263157894735" cx="560" cy="654.5454545454546" fill="#121212ff" stroke="none"></circle><circle r="2.7105263157894735" cx="640" cy="654.5454545454546" fill="#121212ff" stroke="none"></circle><circle r="2.7105263157894735" cx="720" cy="654.5454545454546" fill="#121212ff" stroke="none"></circle><circle r="2.7105263157894735" cx="800" cy="654.5454545454546" fill="#121212ff" stroke="none"></circle><circle r="2.7105263157894735" cx="0" cy="727.2727272727274" fill="#121212ff" stroke="none"></circle><circle r="2.7105263157894735" cx="80" cy="727.2727272727274" fill="#121212ff" stroke="none"></circle><circle r="2.7105263157894735" cx="160" cy="727.2727272727274" fill="#121212ff" stroke="none"></circle><circle r="2.7105263157894735" cx="240" cy="727.2727272727274" fill="#121212ff" stroke="none"></circle><circle r="2.7105263157894735" cx="320" cy="727.2727272727274" fill="#121212ff" stroke="none"></circle><circle r="2.7105263157894735" cx="400" cy="727.2727272727274" fill="#121212ff" stroke="none"></circle><circle r="2.7105263157894735" cx="480" cy="727.2727272727274" fill="#121212ff" stroke="none"></circle><circle r="2.7105263157894735" cx="560" cy="727.2727272727274" fill="#121212ff" stroke="none"></circle><circle r="2.7105263157894735" cx="640" cy="727.2727272727274" fill="#121212ff" stroke="none"></circle><circle r="2.7105263157894735" cx="720" cy="727.2727272727274" fill="#121212ff" stroke="none"></circle><circle r="2.7105263157894735" cx="800" cy="727.2727272727274" fill="#121212ff" stroke="none"></circle><circle r="2.7105263157894735" cx="0" cy="800.0000000000001" fill="#121212ff" stroke="none"></circle><circle r="2.7105263157894735" cx="80" cy="800.0000000000001" fill="#121212ff" stroke="none"></circle><circle r="2.7105263157894735" cx="160" cy="800.0000000000001" fill="#121212ff" stroke="none"></circle><circle r="2.7105263157894735" cx="240" cy="800.0000000000001" fill="#121212ff" stroke="none"></circle><circle r="2.7105263157894735" cx="320" cy="800.0000000000001" fill="#121212ff" stroke="none"></circle><circle r="2.7105263157894735" cx="400" cy="800.0000000000001" fill="#121212ff" stroke="none"></circle><circle r="2.7105263157894735" cx="480" cy="800.0000000000001" fill="#121212ff" stroke="none"></circle><circle r="2.7105263157894735" cx="560" cy="800.0000000000001" fill="#121212ff" stroke="none"></circle><circle r="2.7105263157894735" cx="640" cy="800.0000000000001" fill="#121212ff" stroke="none"></circle><circle r="2.7105263157894735" cx="720" cy="800.0000000000001" fill="#121212ff" stroke="none"></circle><circle r="2.7105263157894735" cx="800" cy="800.0000000000001" fill="#121212ff" stroke="none"></circle></g></svg>