<svg class="border shadow-md" viewBox="0 0 525.36 525.36" xmlns="http://www.w3.org/2000/svg" preserveAspectRatio="none" style="width: 525.36px; height: 525.36px;"><rect class="bg" id="bg" x="0" y="0" width="525.36" height="525.36" fill="#ffffff"/><path d="M 0 -105.072 L 0 -105.07&#10;                L 35.02 -32.07&#10;                L 105.072 -105.07 L 105.072 -105.07&#10;                L 158.07 -40.07&#10;                L 210.144 -105.07 L 210.144 -105.07&#10;                L 245.17 -19.07&#10;                L 315.216 -105.07 L 315.216 -105.07&#10;                L 350.24 -52.54&#10;                L 420.288 -105.07 L 420.288 -105.07&#10;                L 481.29 -6.07&#10;                L 525.36 -105.07 L 525.36 -105.07&#10;                L 560.38 -52.07&#10;                L 630.432 -105.07  V 525.36 H 0 V -105.07 Z" fill="#E28868"/><path d="M 0 0 L 0 0.00&#10;                L 58.00 52.54&#10;                L 105.072 0.00 L 105.072 0.00&#10;                L 140.10 84.00&#10;                L 210.144 0.00 L 210.144 0.00&#10;                L 257.14 52.54&#10;                L 315.216 0.00 L 315.216 0.00&#10;                L 350.24 91.00&#10;                L 420.288 0.00 L 420.288 0.00&#10;                L 455.31 52.54&#10;                L 525.36 0.00 L 525.36 0.00&#10;                L 560.38 52.54&#10;                L 630.432 0.00  V 525.36 H 0 V 0.00 Z" fill="#e27e5d"/><path d="M 0 105.072 L 0 105.07&#10;                L 38.00 173.07&#10;                L 105.072 105.07 L 105.072 105.07&#10;                L 182.07 157.61&#10;                L 210.144 105.07 L 210.144 105.07&#10;                L 278.14 173.07&#10;                L 315.216 105.07 L 315.216 105.07&#10;                L 350.24 157.61&#10;                L 420.288 105.07 L 420.288 105.07&#10;                L 458.29 186.07&#10;                L 525.36 105.07 L 525.36 105.07&#10;                L 562.36 157.61&#10;                L 630.432 105.07  V 525.36 H 0 V 105.07 Z" fill="#e27452"/><path d="M 0 210.144 L 0 210.14&#10;                L 54.00 262.68&#10;                L 105.072 210.14 L 105.072 210.14&#10;                L 160.07 272.14&#10;                L 210.144 210.14 L 210.144 210.14&#10;                L 275.14 282.14&#10;                L 315.216 210.14 L 315.216 210.14&#10;                L 350.24 262.68&#10;                L 420.288 210.14 L 420.288 210.14&#10;                L 455.31 300.14&#10;                L 525.36 210.14 L 525.36 210.14&#10;                L 560.38 262.68&#10;                L 630.432 210.14  V 525.36 H 0 V 210.14 Z" fill="#e26a47"/><path d="M 0 315.216 L 0 315.22&#10;                L 35.02 411.22&#10;                L 105.072 315.22 L 105.072 315.22&#10;                L 140.10 371.22&#10;                L 210.144 315.22 L 210.144 315.22&#10;                L 245.17 367.75&#10;                L 315.216 315.22 L 315.216 315.22&#10;                L 350.24 367.75&#10;                L 420.288 315.22 L 420.288 315.22&#10;                L 455.31 381.22&#10;                L 525.36 315.22 L 525.36 315.22&#10;                L 560.38 367.75&#10;                L 630.432 315.22  V 525.36 H 0 V 315.22 Z" fill="#e2603c"/><path d="M 0 420.288 L 0 420.29&#10;                L 53.00 472.82&#10;                L 105.072 420.29 L 105.072 420.29&#10;                L 145.07 472.82&#10;                L 210.144 420.29 L 210.144 420.29&#10;                L 261.14 472.82&#10;                L 315.216 420.29 L 315.216 420.29&#10;                L 350.24 472.82&#10;                L 420.288 420.29 L 420.288 420.29&#10;                L 455.31 472.82&#10;                L 525.36 420.29 L 525.36 420.29&#10;                L 560.38 501.29&#10;                L 630.432 420.29  V 525.36 H 0 V 420.29 Z" fill="#e25631"/></svg>