<svg class="border shadow-md" viewBox="0 0 576.4 576.4" xmlns="http://www.w3.org/2000/svg" preserveAspectRatio="none" style="width: 576.4px; height: 576.4px;"><rect class="bg" id="bg" x="0" y="0" width="576.4" height="576.4" fill="#ffffff"/><g transform="rotate(0 288.2 288.2)"><path d="M -258.80 -52.34 S -203.00 -93.51&#10;            0.00 -52.34 119.40 -93.51&#10;            258.80 -52.34 378.20 -131.34&#10;            517.60 -52.34 637.00 -129.34&#10;            776.40 -52.34 887.20 -124.34&#10;            1035.20 -52.34 h 110 V 776.4 H -258.80 Z" fill="#E28868" id="-1"/><path d="M -258.80 30.00 S -145.00 -11.17&#10;            0.00 30.00 28.80 -19.00&#10;            258.80 30.00 333.60 -11.17&#10;            517.60 30.00 587.40 -11.17&#10;            776.40 30.00 895.20 -11.17&#10;            1035.20 30.00 h 110 V 776.4 H -258.80 Z" fill="#e2805f" id="0"/><path d="M -258.80 112.34 S -207.00 49.34&#10;            0.00 112.34 119.40 42.34&#10;            258.80 112.34 378.20 71.17&#10;            517.60 112.34 519.40 71.17&#10;            776.40 112.34 792.20 61.34&#10;            1035.20 112.34 h 110 V 776.4 H -258.80 Z" fill="#e27856" id="1"/><path d="M -258.80 194.69 S -139.40 114.69&#10;            0.00 194.69 31.80 150.69&#10;            258.80 194.69 378.20 153.51&#10;            517.60 194.69 574.40 153.51&#10;            776.40 194.69 895.80 136.69&#10;            1035.20 194.69 h 110 V 776.4 H -258.80 Z" fill="#e2704d" id="2"/><path d="M -258.80 277.03 S -204.00 235.86&#10;            0.00 277.03 119.40 235.86&#10;            258.80 277.03 261.60 224.03&#10;            517.60 277.03 586.40 233.03&#10;            776.40 277.03 895.80 209.03&#10;            1035.20 277.03 h 110 V 776.4 H -258.80 Z" fill="#e26844" id="3"/><path d="M -258.80 359.37 S -248.00 296.37&#10;            0.00 359.37 79.80 318.20&#10;            258.80 359.37 290.60 318.20&#10;            517.60 359.37 637.00 308.37&#10;            776.40 359.37 776.20 318.20&#10;            1035.20 359.37 h 110 V 776.4 H -258.80 Z" fill="#e2603b" id="4"/><path d="M -258.80 441.71 S -139.40 365.71&#10;            0.00 441.71 119.40 398.71&#10;            258.80 441.71 378.20 400.54&#10;            517.60 441.71 612.40 400.54&#10;            776.40 441.71 895.80 369.71&#10;            1035.20 441.71 h 110 V 776.4 H -258.80 Z" fill="#e25832" id="5"/><path id="6" d="M -258.80 524.06 S -205.00 462.06&#10;            0.00 524.06 119.40 482.89&#10;            258.80 524.06 378.20 476.06&#10;            517.60 524.06 573.40 450.06&#10;            776.40 524.06 895.80 479.06&#10;            1035.20 524.06 h 110 V 776.4 H -258.80 Z" fill="#e25029"/></g></svg>