<svg id="visual" viewBox="0 0 960 150" width="960" height="150" xmlns="http://www.w3.org/2000/svg" xmlns:xlink="http://www.w3.org/1999/xlink" version="1.1"><path d="M0 96L17.8 88.2C35.7 80.3 71.3 64.7 106.8 60.3C142.3 56 177.7 63 213.2 72.8C248.7 82.7 284.3 95.3 320 93.8C355.7 92.3 391.3 76.7 426.8 66.3C462.3 56 497.7 51 533.2 48C568.7 45 604.3 44 640 42.7C675.7 41.3 711.3 39.7 746.8 46C782.3 52.3 817.7 66.7 853.2 70.3C888.7 74 924.3 67 942.2 63.5L960 60L960 0L942.2 0C924.3 0 888.7 0 853.2 0C817.7 0 782.3 0 746.8 0C711.3 0 675.7 0 640 0C604.3 0 568.7 0 533.2 0C497.7 0 462.3 0 426.8 0C391.3 0 355.7 0 320 0C284.3 0 248.7 0 213.2 0C177.7 0 142.3 0 106.8 0C71.3 0 35.7 0 17.8 0L0 0Z" fill="#E54D26" stroke-linecap="round" stroke-linejoin="miter"></path></svg>