<svg id="visual" viewBox="0 0 960 150" width="960" height="150" xmlns="http://www.w3.org/2000/svg" xmlns:xlink="http://www.w3.org/1999/xlink" version="1.1"><path d="M0 38L17.8 48.3C35.7 58.7 71.3 79.3 106.8 90.7C142.3 102 177.7 104 213.2 95C248.7 86 284.3 66 320 66.3C355.7 66.7 391.3 87.3 426.8 91.5C462.3 95.7 497.7 83.3 533.2 74.7C568.7 66 604.3 61 640 62C675.7 63 711.3 70 746.8 79.2C782.3 88.3 817.7 99.7 853.2 97.3C888.7 95 924.3 79 942.2 71L960 63L960 151L942.2 151C924.3 151 888.7 151 853.2 151C817.7 151 782.3 151 746.8 151C711.3 151 675.7 151 640 151C604.3 151 568.7 151 533.2 151C497.7 151 462.3 151 426.8 151C391.3 151 355.7 151 320 151C284.3 151 248.7 151 213.2 151C177.7 151 142.3 151 106.8 151C71.3 151 35.7 151 17.8 151L0 151Z" fill="#E28868" stroke-linecap="round" stroke-linejoin="miter"></path></svg>